<svg width="112" height="37" viewBox="0 0 112 37" fill="none" xmlns="http://www.w3.org/2000/svg">
<path d="M100.805 14.846V0.85791H103.003V6.85281H109.677V0.85791H111.876V14.846H109.677V8.8511H103.003V14.846H100.805Z" fill="white"/>
<path d="M93.3072 15.046C91.9084 15.046 90.7161 14.7196 89.7302 14.0668C88.7577 13.414 88.1383 12.4681 87.8718 11.2292L89.8901 10.5698C90.0766 11.3824 90.4763 11.9952 91.0891 12.4082C91.7152 12.8212 92.4479 13.0277 93.2872 13.0277C94.0599 13.0277 94.6993 12.8611 95.2056 12.5281C95.7251 12.195 95.9849 11.6955 95.9849 11.0294C95.9849 10.4032 95.7451 9.95029 95.2655 9.67053C94.7993 9.37745 94.0865 9.11767 93.1274 8.89119C92.6211 8.7713 92.2348 8.67804 91.9683 8.61143C91.7019 8.5315 91.3289 8.4116 90.8493 8.25174C90.3697 8.07855 89.99 7.8987 89.7103 7.7122C89.4438 7.51237 89.1574 7.27257 88.851 6.99281C88.5579 6.71305 88.3381 6.37334 88.1916 5.97368C88.0583 5.57402 87.9917 5.13439 87.9917 4.6548C87.9917 3.4425 88.4314 2.47666 89.3106 1.75727C90.1899 1.02456 91.3422 0.658203 92.7677 0.658203C94.0732 0.658203 95.1856 0.984592 96.1048 1.63737C97.024 2.27682 97.6169 3.22269 97.8833 4.47495L95.865 5.13439C95.6785 4.32175 95.3055 3.70894 94.746 3.29596C94.1998 2.88298 93.547 2.67648 92.7876 2.67648C92.0816 2.67648 91.4954 2.84967 91.0291 3.19604C90.5762 3.54241 90.3497 4.02201 90.3497 4.63482C90.3497 5.26095 90.5762 5.72056 91.0291 6.01364C91.4821 6.2934 92.1815 6.53986 93.1274 6.75301C94.5794 7.07274 95.6052 7.39247 96.2047 7.7122C97.6302 8.43158 98.3429 9.53065 98.3429 11.0094C98.3429 12.2483 97.8833 13.2342 96.9641 13.9669C96.0449 14.6863 94.8259 15.046 93.3072 15.046Z" fill="white"/>
<path d="M81.1778 0.85791L86.9329 14.846H84.5949L83.256 11.5088H76.6417L75.3028 14.846H72.9648L78.7199 0.85791H81.1778ZM77.441 9.51054H82.4367L79.9388 3.31582L77.441 9.51054Z" fill="white"/>
<path d="M70.5811 0.85791H72.9791L68.5428 14.846H66.005L62.3481 3.99524L58.6912 14.846H56.1534L51.7172 0.85791H54.1151L57.5122 11.9085L61.1491 0.85791H63.5471L67.184 11.9085L70.5811 0.85791Z" fill="white"/>
<path d="M44.5761 14.846V2.85621H40.2798V0.85791H51.0706V2.85621H46.7743V14.846H44.5761Z" fill="white"/>
<path d="M29.7913 14.846V0.85791H39.0634V2.85621H31.9894V7.05264H38.6437V9.05093H31.9894V14.846H29.7913Z" fill="white"/>
<path d="M25.3391 13.0477C23.9935 14.3799 22.295 15.046 20.2434 15.046C18.1918 15.046 16.4933 14.3799 15.1477 13.0477C13.8022 11.7021 13.1295 9.96361 13.1295 7.83209C13.1295 5.70058 13.7956 3.97538 15.1278 2.6565C16.4733 1.3243 18.1785 0.658203 20.2434 0.658203C22.295 0.658203 23.9935 1.3243 25.3391 2.6565C26.6846 3.97538 27.3573 5.70058 27.3573 7.83209C27.3573 9.96361 26.6846 11.7021 25.3391 13.0477ZM16.7863 11.5289C17.6922 12.4615 18.8446 12.9278 20.2434 12.9278C21.6422 12.9278 22.7879 12.4615 23.6805 11.5289C24.5864 10.5831 25.0393 9.3508 25.0393 7.83209C25.0393 6.32671 24.5864 5.10775 23.6805 4.17521C22.7879 3.24267 21.6422 2.7764 20.2434 2.7764C18.8446 2.7764 17.6922 3.24267 16.7863 4.17521C15.8938 5.10775 15.4475 6.32671 15.4475 7.83209C15.4475 9.3508 15.8938 10.5831 16.7863 11.5289Z" fill="white"/>
<path d="M6.31098 15.046C4.91217 15.046 3.71986 14.7196 2.73403 14.0668C1.76152 13.414 1.14205 12.4681 0.87561 11.2292L2.89389 10.5698C3.0804 11.3824 3.48006 11.9952 4.09287 12.4082C4.719 12.8212 5.45171 13.0277 6.291 13.0277C7.06367 13.0277 7.70313 12.8611 8.20937 12.5281C8.72892 12.195 8.9887 11.6955 8.9887 11.0294C8.9887 10.4032 8.74891 9.95029 8.26931 9.67053C7.80305 9.37745 7.09032 9.11767 6.13113 8.89119C5.6249 8.7713 5.23856 8.67804 4.97212 8.61143C4.70568 8.5315 4.33267 8.4116 3.85307 8.25174C3.37348 8.07855 2.99381 7.8987 2.71404 7.7122C2.44761 7.51237 2.16118 7.27257 1.85478 6.99281C1.56169 6.71305 1.34188 6.37334 1.19534 5.97368C1.06212 5.57402 0.995508 5.13439 0.995508 4.6548C0.995508 3.4425 1.43513 2.47666 2.31439 1.75727C3.19364 1.02456 4.34599 0.658203 5.77144 0.658203C7.077 0.658203 8.18938 0.984592 9.1086 1.63737C10.0278 2.27682 10.6206 3.22269 10.8871 4.47495L8.8688 5.13439C8.6823 4.32175 8.30928 3.70894 7.74976 3.29596C7.20356 2.88298 6.55078 2.67648 5.79142 2.67648C5.08536 2.67648 4.49919 2.84967 4.03292 3.19604C3.57997 3.54241 3.3535 4.02201 3.3535 4.63482C3.3535 5.26095 3.57997 5.72056 4.03292 6.01364C4.48587 6.2934 5.18527 6.53986 6.13113 6.75301C7.58323 7.07274 8.60903 7.39247 9.20851 7.7122C10.634 8.43158 11.3467 9.53065 11.3467 11.0094C11.3467 12.2483 10.8871 13.2342 9.96787 13.9669C9.04865 14.6863 7.82969 15.046 6.31098 15.046Z" fill="white"/>
<path d="M46.8165 31.0724C46.67 31.0724 46.5301 31.0325 46.3969 30.9525C46.0239 30.7394 45.8373 30.4063 45.8373 29.9534C45.8373 29.6603 45.9173 29.3872 46.0771 29.1341C46.237 28.8677 46.4168 28.6212 46.6167 28.3947C47.1229 27.7686 47.7091 27.2224 48.3752 26.7561C48.0821 26.1966 47.7224 25.737 47.2961 25.3773L46.9564 25.0576C46.5034 24.5913 46.277 24.125 46.277 23.6588V23.5588C46.277 23.2791 46.3569 23.026 46.5168 22.7995C46.7566 22.5597 47.0363 22.4132 47.3561 22.3599C47.4493 22.3599 47.5226 22.3932 47.5759 22.4598C47.6292 22.5264 47.6558 22.5997 47.6558 22.6796C47.6558 22.7862 47.5825 22.8728 47.436 22.9394C47.2761 22.9793 47.1429 23.0393 47.0363 23.1192C46.9297 23.1991 46.8698 23.3657 46.8565 23.6188C46.8565 24.0451 47.1296 24.4847 47.6758 24.9377L47.8356 25.0775C48.3019 25.5039 48.6416 25.9435 48.8548 26.3964C49.7473 25.7836 50.6732 25.2174 51.6324 24.6979C51.6857 24.6712 51.7323 24.6579 51.7723 24.6579C51.8522 24.6579 51.9188 24.6912 51.9721 24.7578C52.0387 24.8244 52.072 24.8977 52.072 24.9776C52.072 25.0576 52.0254 25.1308 51.9322 25.1974C50.9463 25.717 49.9871 26.3032 49.0546 26.9559C49.1479 27.289 49.1945 27.6287 49.1945 27.9751C49.1945 28.5612 49.0346 29.1274 48.7149 29.6736C48.4085 30.2198 47.9622 30.6328 47.376 30.9126C47.1895 31.0192 47.003 31.0724 46.8165 31.0724ZM46.8165 30.473C46.963 30.473 47.1496 30.3997 47.376 30.2531C47.5492 30.1599 47.7557 29.98 47.9955 29.7136C48.3952 29.2207 48.6017 28.6412 48.615 27.9751C48.615 27.7619 48.595 27.5488 48.555 27.3356C47.8889 27.8685 47.3361 28.408 46.8964 28.9542L46.8165 29.0542C46.5767 29.3606 46.4435 29.6603 46.4168 29.9534C46.4168 30.1399 46.4901 30.2998 46.6367 30.433C46.69 30.4596 46.7499 30.473 46.8165 30.473Z" fill="white"/>
<path d="M27.5632 22.4198C27.4833 22.4198 27.41 22.3998 27.3434 22.3598C27.2901 22.3065 27.2635 22.2333 27.2635 22.14C27.3168 21.6604 27.4633 21.2341 27.7031 20.8611C27.7697 20.7812 27.843 20.7412 27.9229 20.7412C28.0029 20.7412 28.0695 20.7745 28.1228 20.8411C28.1894 20.8944 28.2227 20.961 28.2227 21.041C28.2227 21.0942 28.2094 21.1475 28.1827 21.2008C27.9962 21.4939 27.883 21.8203 27.843 22.18C27.8164 22.3398 27.7231 22.4198 27.5632 22.4198ZM31.9395 30.8326C31.8463 30.8326 31.7463 30.8193 31.6398 30.7927C31.0802 30.5662 30.8005 29.96 30.8005 28.9742C30.8005 28.5079 30.8471 28.0417 30.9404 27.5754C30.4874 28.0017 29.9878 28.3614 29.4416 28.6545C28.8421 28.9875 28.3026 29.154 27.823 29.154C27.1836 29.1407 26.724 28.8876 26.4442 28.3947C26.2577 27.9284 26.1644 27.4622 26.1644 26.9959C26.2177 25.5171 26.4842 24.2582 26.9637 23.2191C27.0304 23.1125 27.1103 23.0592 27.2035 23.0592C27.2835 23.0592 27.3567 23.0925 27.4234 23.1592C27.49 23.2124 27.5233 23.2857 27.5233 23.379C27.51 23.4456 27.4833 23.5122 27.4433 23.5788C27.4034 23.6454 27.3767 23.7187 27.3634 23.7986C26.9504 24.7578 26.7439 25.7769 26.7439 26.856L26.7639 27.2756C26.7906 27.662 26.8971 27.995 27.0836 28.2748C27.0836 28.3014 27.0836 28.3148 27.0836 28.3148C27.097 28.3148 27.1036 28.3214 27.1036 28.3347C27.117 28.3481 27.1369 28.3614 27.1636 28.3747L27.2035 28.4147C27.3634 28.5213 27.5433 28.5745 27.7431 28.5745C27.9829 28.5745 28.2094 28.5412 28.4225 28.4746C29.3284 28.1815 30.2476 27.5354 31.1802 26.5363C31.3001 26.1366 31.4399 25.737 31.5998 25.3373C31.773 24.9243 32.0061 24.5513 32.2992 24.2183C32.5124 23.9651 32.7522 23.8386 33.0186 23.8386L33.1984 23.8586C33.3983 23.9385 33.4982 24.0517 33.4982 24.1983C33.4982 24.3581 33.4382 24.538 33.3183 24.7378C32.932 25.4039 32.3925 26.11 31.6997 26.856C31.5931 27.2024 31.5132 27.5487 31.4599 27.8951C31.4066 28.2282 31.38 28.5612 31.38 28.8943C31.3933 29.0275 31.4 29.1674 31.4 29.3139C31.4 29.4471 31.4266 29.6003 31.4799 29.7735L31.5199 29.9334C31.5332 29.9334 31.5399 29.94 31.5399 29.9534L31.6997 30.1732C31.713 30.1732 31.7264 30.1798 31.7397 30.1932C31.7663 30.2065 31.813 30.2198 31.8796 30.2331L31.8995 30.2531C32.126 30.2265 32.3059 30.1665 32.4391 30.0733C32.7055 29.9001 32.932 29.6603 33.1185 29.3539C33.718 28.2615 34.0311 27.0758 34.0577 25.7969L34.0777 25.1375C34.0777 23.9785 33.8712 23.0592 33.4582 22.3798C33.4183 22.3265 33.3983 22.2732 33.3983 22.22C33.3983 22.14 33.4316 22.0734 33.4982 22.0201C33.5648 21.9668 33.6314 21.9402 33.698 21.9402C33.8312 21.9402 33.9245 21.9935 33.9778 22.1001V22.12C34.0444 22.1866 34.0977 22.2333 34.1376 22.2599C34.1776 22.2732 34.2176 22.2932 34.2575 22.3199C34.6705 22.5863 35.3166 22.8061 36.1959 22.9793C36.5556 23.0459 36.9486 23.0792 37.3749 23.0792C37.588 23.0792 37.7546 23.0592 37.8745 23.0193C37.9944 22.9793 38.1076 22.9593 38.2142 22.9593C38.5073 22.986 38.6538 23.2324 38.6538 23.6987C38.6538 23.8852 38.6405 24.0584 38.6138 24.2183L38.4739 25.1575L38.5339 25.0376C38.6538 24.7844 38.787 24.5446 38.9336 24.3182C39.4531 23.4123 40.0126 22.9593 40.6121 22.9593C40.8253 22.9593 41.0451 23.0393 41.2716 23.1991C41.5913 23.5055 41.8111 23.8852 41.931 24.3381C42.0376 24.6579 42.1175 24.9909 42.1708 25.3373L42.3307 25.9967C42.4106 26.3964 42.5571 26.7627 42.7703 27.0958C42.7836 27.1224 42.8369 27.1824 42.9302 27.2756C43.09 27.3556 43.2565 27.4022 43.4297 27.4155C43.5629 27.4155 43.6962 27.3955 43.8294 27.3556C44.5088 27.1291 45.095 26.7627 45.5879 26.2565C46.0408 25.8036 46.4671 25.324 46.8668 24.8177C46.9201 24.7645 46.9867 24.7378 47.0666 24.7378C47.1466 24.7378 47.2132 24.7711 47.2665 24.8377C47.3331 24.891 47.3664 24.951 47.3664 25.0176C47.3664 25.0975 47.3397 25.1708 47.2864 25.2374C46.8468 25.8102 46.3606 26.3431 45.8277 26.836C45.1216 27.5288 44.3156 27.9151 43.4097 27.995C43.0234 27.995 42.6904 27.8552 42.4106 27.5754C42.1175 27.1891 41.9177 26.7627 41.8111 26.2965C41.7179 25.9768 41.6379 25.6504 41.5713 25.3173L41.4514 24.7778C41.3182 24.2849 41.145 23.9185 40.9319 23.6787C40.9052 23.6787 40.8919 23.6654 40.8919 23.6387L40.6721 23.5388C40.5522 23.5388 40.4456 23.5588 40.3523 23.5988C40.2724 23.6387 40.2125 23.6787 40.1725 23.7187C39.8528 23.9585 39.5397 24.3715 39.2333 24.9576C38.5805 26.1566 38.1609 27.4422 37.9744 28.8143C37.9477 28.9609 37.8611 29.0341 37.7146 29.0341C37.6347 29.0341 37.5614 29.0142 37.4948 28.9742C37.4282 28.9209 37.3949 28.8476 37.3949 28.7544V28.6345C37.3949 27.9817 37.4748 27.3356 37.6347 26.6961C37.8878 25.244 38.0277 24.2116 38.0543 23.5988C38.001 23.5988 37.9544 23.6054 37.9144 23.6188C37.7013 23.6587 37.4815 23.6787 37.255 23.6787C36.3491 23.6787 35.3899 23.4722 34.3774 23.0592C34.5639 23.752 34.6572 24.458 34.6572 25.1774C34.6572 26.6295 34.4107 27.9218 33.9178 29.0541C33.7047 29.6137 33.3716 30.0866 32.9187 30.4729C32.6123 30.7127 32.2859 30.8326 31.9395 30.8326ZM32.3592 25.1575C32.4791 24.9976 32.5923 24.8244 32.6989 24.6379L32.3592 25.1575Z" fill="white"/>
<path d="M22.7372 36.1681C22.5507 36.1681 22.4574 36.0749 22.4574 35.8884C22.8171 30.6129 23.3034 25.7503 23.9162 21.3008C24.116 19.8487 24.3292 18.3966 24.5556 16.9445C23.3034 16.9711 22.0444 17.0244 20.7789 17.1044C19.6865 17.1577 18.5874 17.2509 17.4817 17.3841C16.5225 17.4507 15.9696 17.7438 15.8231 18.2634C15.7698 18.4099 15.6899 18.4832 15.5833 18.4832C15.5033 18.4832 15.4301 18.4565 15.3635 18.4033C15.2969 18.35 15.2635 18.2767 15.2635 18.1834V18.1235C15.4234 17.3908 16.1228 16.9512 17.3618 16.8046C18.2543 16.698 19.3867 16.6048 20.7589 16.5249C22.2643 16.4183 23.5631 16.365 24.6556 16.365C24.8953 14.9262 25.1485 13.4874 25.4149 12.0487C25.4682 11.9021 25.5481 11.8289 25.6547 11.8289C25.7346 11.8289 25.8079 11.8555 25.8745 11.9088C25.9411 11.9621 25.9744 12.0353 25.9744 12.1286V12.1886C25.7213 13.574 25.4815 14.9662 25.255 16.365H25.8745C27.7129 16.365 29.5447 16.4316 31.3698 16.5648C31.4631 16.5781 31.5297 16.6181 31.5697 16.6847C31.6229 16.738 31.6496 16.8046 31.6496 16.8846C31.6496 17.0577 31.5697 17.1443 31.4098 17.1443C29.3182 17.0111 27.2334 16.9445 25.1551 16.9445L25.0952 17.3641C24.1093 23.5189 23.4299 29.6936 23.0569 35.8884C23.0436 35.9816 23.0103 36.0482 22.957 36.0882C22.8904 36.1415 22.8171 36.1681 22.7372 36.1681Z" fill="white"/>
<path d="M20.6365 28.7144C20.3833 28.7144 20.1569 28.6212 19.957 28.4347C19.6639 28.1682 19.5174 27.7819 19.5174 27.2757C19.5174 26.8227 19.6373 25.9834 19.8771 24.7578L18.3784 28.015C18.2185 28.3614 17.992 28.5346 17.699 28.5346H17.659C17.1661 28.468 16.8996 28.0816 16.8597 27.3756L16.8197 26.1966C16.8463 25.1841 16.9796 24.185 17.2194 23.1991C17.2593 23.0526 17.3459 22.9793 17.4791 22.9793C17.5591 22.9793 17.6323 23.006 17.699 23.0592C17.7656 23.0992 17.7989 23.1658 17.7989 23.2591L17.7789 23.339C17.5657 24.2449 17.4392 25.284 17.3992 26.4563L17.4192 27.1757C17.4192 27.3223 17.4325 27.4755 17.4592 27.6353C17.4858 27.7952 17.5657 27.9018 17.699 27.9551C17.7789 27.9551 17.8855 27.7619 18.0187 27.3756L19.5973 23.9984C19.6773 23.7586 19.7905 23.5122 19.937 23.2591C20.0836 23.006 20.2768 22.8794 20.5166 22.8794C20.5965 22.8794 20.6831 22.906 20.7763 22.9593C20.8829 23.0126 20.9362 23.0925 20.9362 23.1991L20.9162 23.2591C20.5565 24.2715 20.3034 25.3706 20.1569 26.5563L20.1369 26.6762C20.1102 26.8627 20.0969 27.0492 20.0969 27.2357C20.0969 27.5154 20.1369 27.7286 20.2168 27.8751C20.2967 28.0217 20.43 28.1083 20.6165 28.1349C20.803 28.1349 20.9961 28.0283 21.196 27.8152C21.9953 27.0425 22.788 26.0367 23.5739 24.7978C23.6406 24.7045 23.7205 24.6579 23.8137 24.6579C23.8937 24.6579 23.9603 24.6845 24.0136 24.7378C24.0802 24.7911 24.1135 24.8577 24.1135 24.9376C24.1135 24.9776 24.1002 25.0242 24.0735 25.0775C23.6339 25.7969 23.1343 26.4897 22.5748 27.1558C21.962 27.9418 21.4491 28.4347 21.0361 28.6345C20.9029 28.6878 20.7697 28.7144 20.6365 28.7144Z" fill="white"/>
<path d="M13.3206 36.3282C13.214 36.3282 13.1341 36.2549 13.0808 36.1083C12.7344 34.3365 12.5612 32.3982 12.5612 30.2933C12.5745 29.0011 12.6145 27.842 12.6811 26.8163C12.7344 25.7771 12.8476 24.5782 13.0208 23.2193L13.0408 23.0994C13.4938 19.6091 14.353 16.2586 15.6186 13.048C16.298 11.3561 17.0041 10.1837 17.7368 9.53097C18.0565 9.25121 18.3696 9.11133 18.676 9.11133C18.9957 9.15129 19.2089 9.28451 19.3155 9.51099C19.4354 9.72414 19.4953 9.99724 19.4953 10.3303C19.4154 11.3827 19.2156 12.4085 18.8958 13.4077C18.5761 14.3935 18.2031 15.3793 17.7768 16.3652C17.2039 17.7506 16.5312 19.0962 15.7585 20.4017C15.1723 21.4808 14.4529 22.46 13.6003 23.3392C13.3072 25.6706 13.1607 28.1418 13.1607 30.7529C13.1607 32.578 13.3206 34.3165 13.6403 35.9685C13.6403 36.0884 13.607 36.1749 13.5404 36.2282C13.4738 36.2948 13.4005 36.3282 13.3206 36.3282ZM13.7402 22.3201C15.139 20.5616 16.4246 18.2102 17.5969 15.2661C18.0765 14.1071 18.4562 12.9081 18.736 11.6692C18.8425 11.2295 18.9025 10.8032 18.9158 10.3902L18.8958 10.0305V9.9706C18.8825 9.94395 18.8559 9.89733 18.8159 9.83072C18.7892 9.75078 18.7293 9.71082 18.636 9.71082C18.5828 9.71082 18.5228 9.72414 18.4562 9.75078C18.0565 9.96393 17.7368 10.2703 17.497 10.67C16.6577 11.9622 16.0183 13.3477 15.5786 14.8265C14.7527 17.2777 14.1399 19.7756 13.7402 22.3201Z" fill="white"/>
<path d="M7.29764 30.1133C6.92462 30.1133 6.60489 29.9534 6.33845 29.6337C6.08534 29.2473 5.94546 28.8077 5.91881 28.3148L5.87885 27.6953C5.87885 26.2832 6.31847 25.0176 7.19772 23.8985C7.26433 23.8319 7.3376 23.7986 7.41754 23.7986C7.49747 23.7986 7.56408 23.8319 7.61737 23.8985C7.67065 23.9652 7.6973 24.0318 7.6973 24.0984C7.6973 24.165 7.67065 24.2316 7.61737 24.2982C6.85801 25.3107 6.47833 26.4297 6.47833 27.6554C6.47833 28.5346 6.62488 29.1141 6.91796 29.3939C7.03786 29.4871 7.15776 29.5338 7.27765 29.5338C7.50413 29.5338 7.71728 29.4472 7.91711 29.274C8.23684 29.0075 8.48996 28.6878 8.67646 28.3148C9.08944 27.5554 9.29594 26.7561 9.29594 25.9168C9.29594 25.5172 9.24931 25.1242 9.15605 24.7378C8.79636 24.4581 8.61651 24.1184 8.61651 23.7187C8.61651 23.3457 8.73641 23.1592 8.97621 23.1592C9.17604 23.1592 9.40917 23.5722 9.67561 24.3981C9.67561 24.4114 9.67561 24.4181 9.67561 24.4181C9.68893 24.4181 9.70226 24.4248 9.71558 24.4381C10.2618 24.8244 10.8879 25.0176 11.594 25.0176C12.1002 25.0176 12.5865 24.9044 13.0527 24.6779L13.1926 24.6379C13.2725 24.6379 13.3392 24.6712 13.3924 24.7378C13.4591 24.8044 13.4924 24.8777 13.4924 24.9576C13.4924 25.0509 13.4457 25.1242 13.3525 25.1775C12.7796 25.4705 12.1868 25.6171 11.574 25.6171C10.9345 25.6171 10.355 25.4705 9.83548 25.1775C9.86212 25.4039 9.87544 25.6371 9.87544 25.8769C9.87544 27.0758 9.52907 28.1682 8.83633 29.1541C8.54324 29.5804 8.15691 29.8801 7.67731 30.0533C7.54409 30.0933 7.41754 30.1133 7.29764 30.1133Z" fill="white"/>
<path d="M1.85478 31.0724C1.70823 31.0724 1.56835 31.0325 1.43513 30.9525C1.06212 30.7394 0.87561 30.4063 0.87561 29.9534C0.87561 29.6603 0.955542 29.3872 1.11541 29.1341C1.27527 28.8677 1.45512 28.6212 1.65495 28.3947C2.16118 27.7686 2.74735 27.2224 3.41345 26.7561C3.12037 26.1966 2.76067 25.737 2.33437 25.3773L1.99466 25.0576C1.54171 24.5913 1.31524 24.125 1.31524 23.6588V23.5588C1.31524 23.2791 1.39517 23.026 1.55503 22.7995C1.79483 22.5597 2.07459 22.4132 2.39432 22.3599C2.48757 22.3599 2.56084 22.3932 2.61413 22.4598C2.66742 22.5264 2.69406 22.5997 2.69406 22.6796C2.69406 22.7862 2.62079 22.8728 2.47425 22.9394C2.31438 22.9793 2.18117 23.0393 2.07459 23.1192C1.96801 23.1991 1.90806 23.3657 1.89474 23.6188C1.89474 24.0451 2.16784 24.4847 2.71404 24.9377L2.87391 25.0775C3.34018 25.5039 3.67989 25.9435 3.89304 26.3964C4.78561 25.7836 5.71149 25.2174 6.67068 24.6979C6.72396 24.6712 6.77059 24.6579 6.81056 24.6579C6.89049 24.6579 6.9571 24.6912 7.01039 24.7578C7.077 24.8244 7.1103 24.8977 7.1103 24.9776C7.1103 25.0576 7.06367 25.1308 6.97042 25.1974C5.98459 25.717 5.02541 26.3032 4.09287 26.9559C4.18612 27.289 4.23275 27.6287 4.23275 27.9751C4.23275 28.5612 4.07289 29.1274 3.75316 29.6736C3.44675 30.2198 3.00047 30.6328 2.4143 30.9126C2.22779 31.0192 2.04128 31.0724 1.85478 31.0724ZM1.85478 30.473C2.00132 30.473 2.18783 30.3997 2.4143 30.2531C2.58749 30.1599 2.79398 29.98 3.03377 29.7136C3.43343 29.2207 3.63992 28.6412 3.65324 27.9751C3.65324 27.7619 3.63326 27.5488 3.5933 27.3356C2.9272 27.8685 2.37433 28.408 1.93471 28.9542L1.85478 29.0542C1.61498 29.3606 1.48176 29.6603 1.45512 29.9534C1.45512 30.1399 1.52839 30.2998 1.67493 30.433C1.72822 30.4596 1.78817 30.473 1.85478 30.473Z" fill="white"/>
</svg>
